<svg viewBox="0 0 800 450" xmlns="http://www.w3.org/2000/svg" width="800" height="450">
  <defs>
    <linearGradient id="bg3" x1="0%" y1="0%" x2="100%" y2="100%">
      <stop offset="0%" style="stop-color:#0a0e1a"/>
      <stop offset="100%" style="stop-color:#0d1220"/>
    </linearGradient>
    <linearGradient id="blue1" x1="0%" y1="0%" x2="100%" y2="100%">
      <stop offset="0%" style="stop-color:#1d4ed8"/>
      <stop offset="100%" style="stop-color:#3b82f6"/>
    </linearGradient>
    <linearGradient id="headerBar" x1="0%" y1="0%" x2="100%" y2="0%">
      <stop offset="0%" style="stop-color:#1e3a5f"/>
      <stop offset="100%" style="stop-color:#0d1a2e"/>
    </linearGradient>
    <radialGradient id="blueOrb" cx="50%" cy="50%" r="50%">
      <stop offset="0%" style="stop-color:#1d4ed8;stop-opacity:0.2"/>
      <stop offset="100%" style="stop-color:#1d4ed8;stop-opacity:0"/>
    </radialGradient>
    <filter id="glow3">
      <feGaussianBlur stdDeviation="3" result="blur"/>
      <feMerge><feMergeNode in="blur"/><feMergeNode in="SourceGraphic"/></feMerge>
    </filter>
  </defs>

  <!-- Background -->
  <rect width="800" height="450" fill="url(#bg3)"/>

  <!-- Orbs -->
  <ellipse cx="700" cy="100" rx="200" ry="180" fill="url(#blueOrb)" opacity="0.8"/>
  <ellipse cx="100" cy="380" rx="160" ry="140" fill="url(#blueOrb)" opacity="0.4"/>

  <!-- ── Top nav bar ── -->
  <rect x="0" y="0" width="800" height="48" fill="url(#headerBar)" opacity="0.95"/>
  <circle cx="24" cy="24" r="10" fill="#1e40af" opacity="0.6"/>
  <text x="24" y="28" text-anchor="middle" font-family="monospace" font-size="10" fill="#93c5fd" font-weight="700">T</text>
  <text x="44" y="28" font-family="monospace" font-size="11" fill="#93c5fd" font-weight="700">Training Dashboard</text>

  <!-- Nav items -->
  <text x="220" y="28" font-family="monospace" font-size="9" fill="#60a5fa">Overview</text>
  <text x="284" y="28" font-family="monospace" font-size="9" fill="#475569">Tasks</text>
  <text x="326" y="28" font-family="monospace" font-size="9" fill="#475569">Trainees</text>
  <text x="380" y="28" font-family="monospace" font-size="9" fill="#475569">Reports</text>

  <!-- Right nav: user badge -->
  <rect x="680" y="12" width="96" height="24" rx="12" fill="#1e3a5f" stroke="#1d4ed8" stroke-width="1"/>
  <circle cx="694" cy="24" r="7" fill="#1d4ed8" opacity="0.7"/>
  <text x="694" y="28" text-anchor="middle" font-family="monospace" font-size="8" fill="#93c5fd">A</text>
  <text x="710" y="28" font-family="monospace" font-size="8" fill="#60a5fa">Trainer · Admin</text>

  <!-- ── Stats row ── -->
  <!-- Stat 1 -->
  <rect x="20" y="60" width="120" height="64" rx="10" fill="#0d1a2e" stroke="#1e3a5f" stroke-width="1"/>
  <text x="34" y="82" font-family="monospace" font-size="8" fill="#475569">TOTAL TRAINEES</text>
  <text x="34" y="104" font-family="monospace" font-size="22" fill="#60a5fa" font-weight="700">24</text>
  <text x="116" y="104" text-anchor="end" font-family="monospace" font-size="8" fill="#22c55e">↑ 3</text>

  <!-- Stat 2 -->
  <rect x="152" y="60" width="120" height="64" rx="10" fill="#0d1a2e" stroke="#1e3a5f" stroke-width="1"/>
  <text x="166" y="82" font-family="monospace" font-size="8" fill="#475569">TASKS ACTIVE</text>
  <text x="166" y="104" font-family="monospace" font-size="22" fill="#f59e0b" font-weight="700">18</text>
  <text x="248" y="104" text-anchor="end" font-family="monospace" font-size="8" fill="#f59e0b">ongoing</text>

  <!-- Stat 3 -->
  <rect x="284" y="60" width="120" height="64" rx="10" fill="#0d1a2e" stroke="#1e3a5f" stroke-width="1"/>
  <text x="298" y="82" font-family="monospace" font-size="8" fill="#475569">COMPLETED</text>
  <text x="298" y="104" font-family="monospace" font-size="22" fill="#22c55e" font-weight="700">47</text>
  <text x="380" y="104" text-anchor="end" font-family="monospace" font-size="8" fill="#22c55e">↑ 12%</text>

  <!-- Stat 4: JWT Auth indicator -->
  <rect x="416" y="60" width="120" height="64" rx="10" fill="#0d1a2e" stroke="#1e3a5f" stroke-width="1"/>
  <text x="430" y="82" font-family="monospace" font-size="8" fill="#475569">AUTH STATUS</text>
  <text x="430" y="100" font-family="monospace" font-size="10" fill="#22c55e" font-weight="700">● JWT Active</text>
  <text x="430" y="115" font-family="monospace" font-size="8" fill="#475569">MongoDB Atlas</text>

  <!-- ── Kanban columns ── -->
  <!-- TO DO -->
  <rect x="20" y="138" width="176" height="250" rx="10" fill="#080d18" stroke="#1e3a5f" stroke-width="1"/>
  <rect x="20" y="138" width="176" height="32" rx="10" fill="#0d1a2e"/>
  <rect x="20" y="158" width="176" height="12" fill="#0d1a2e"/>
  <circle cx="38" cy="154" r="5" fill="#475569" opacity="0.6"/>
  <text x="50" y="158" font-family="monospace" font-size="9" fill="#64748b" font-weight="700">TO DO</text>
  <rect x="148" y="146" width="36" height="16" rx="8" fill="#1e2d40"/>
  <text x="166" y="158" text-anchor="middle" font-family="monospace" font-size="8" fill="#60a5fa">6</text>

  <!-- Task cards in TO DO -->
  <rect x="30" y="180" width="156" height="50" rx="6" fill="#0d1626" stroke="#1e3a5f" stroke-width="1"/>
  <text x="42" y="198" font-family="monospace" font-size="8" fill="#60a5fa">Module 4: SQL Basics</text>
  <text x="42" y="212" font-family="monospace" font-size="7" fill="#475569">Assigned → Raj K.</text>
  <rect x="42" y="218" width="44" height="6" rx="3" fill="#1e3a5f"/>
  <rect x="90" y="218" width="20" height="6" rx="3" fill="#1e3a5f" opacity="0.5"/>
  <text x="166" y="224" text-anchor="end" font-family="monospace" font-size="7" fill="#f59e0b">Due 2d</text>

  <rect x="30" y="240" width="156" height="50" rx="6" fill="#0d1626" stroke="#1e3a5f" stroke-width="1"/>
  <text x="42" y="258" font-family="monospace" font-size="8" fill="#60a5fa">REST API Design</text>
  <text x="42" y="272" font-family="monospace" font-size="7" fill="#475569">Assigned → Priya M.</text>
  <text x="166" y="278" text-anchor="end" font-family="monospace" font-size="7" fill="#94a3b8">Due 5d</text>

  <rect x="30" y="300" width="156" height="50" rx="6" fill="#0d1626" stroke="#1e3a5f" stroke-width="1" opacity="0.6"/>
  <text x="42" y="318" font-family="monospace" font-size="8" fill="#475569">Docker Fundamentals</text>
  <text x="42" y="332" font-family="monospace" font-size="7" fill="#334155">Assigned → 3 trainees</text>

  <!-- IN PROGRESS -->
  <rect x="208" y="138" width="176" height="250" rx="10" fill="#080d18" stroke="#1e3a5f" stroke-width="1"/>
  <rect x="208" y="138" width="176" height="32" rx="10" fill="#0d1a2e"/>
  <rect x="208" y="158" width="176" height="12" fill="#0d1a2e"/>
  <circle cx="226" cy="154" r="5" fill="#f59e0b" opacity="0.8" filter="url(#glow3)"/>
  <text x="238" y="158" font-family="monospace" font-size="9" fill="#f59e0b" font-weight="700">IN PROGRESS</text>
  <rect x="336" y="146" width="36" height="16" rx="8" fill="#2d1e08"/>
  <text x="354" y="158" text-anchor="middle" font-family="monospace" font-size="8" fill="#f59e0b">4</text>

  <!-- Task cards IN PROGRESS -->
  <rect x="218" y="180" width="156" height="56" rx="6" fill="#1a1200" stroke="#d97706" stroke-width="1.5"/>
  <rect x="218" y="180" width="156" height="3" rx="1.5" fill="#f59e0b"/>
  <text x="230" y="198" font-family="monospace" font-size="8" fill="#fbbf24">Flask + MongoDB Setup</text>
  <text x="230" y="211" font-family="monospace" font-size="7" fill="#78716c">Ankit S. · 60% done</text>
  <!-- progress bar -->
  <rect x="230" y="218" width="130" height="5" rx="2.5" fill="#2d1e08"/>
  <rect x="230" y="218" width="78" height="5" rx="2.5" fill="#f59e0b"/>
  <text x="364" y="230" text-anchor="end" font-family="monospace" font-size="7" fill="#f59e0b">60%</text>

  <rect x="218" y="246" width="156" height="50" rx="6" fill="#120e00" stroke="#d97706" stroke-width="1"/>
  <text x="230" y="264" font-family="monospace" font-size="8" fill="#fbbf24">JWT Auth Module</text>
  <text x="230" y="278" font-family="monospace" font-size="7" fill="#78716c">Meera J. · 35% done</text>
  <rect x="230" y="283" width="130" height="5" rx="2.5" fill="#2d1e08"/>
  <rect x="230" y="283" width="45" height="5" rx="2.5" fill="#f59e0b" opacity="0.7"/>

  <rect x="218" y="306" width="156" height="44" rx="6" fill="#120e00" stroke="#d97706" stroke-width="1" opacity="0.6"/>
  <text x="230" y="323" font-family="monospace" font-size="8" fill="#a16207">Pydantic Validation</text>
  <text x="230" y="337" font-family="monospace" font-size="7" fill="#57534e">Ravi P. · 80% done</text>

  <!-- DONE -->
  <rect x="396" y="138" width="176" height="250" rx="10" fill="#080d18" stroke="#1e3a5f" stroke-width="1"/>
  <rect x="396" y="138" width="176" height="32" rx="10" fill="#0d1a2e"/>
  <rect x="396" y="158" width="176" height="12" fill="#0d1a2e"/>
  <circle cx="414" cy="154" r="5" fill="#22c55e" opacity="0.8" filter="url(#glow3)"/>
  <text x="426" y="158" font-family="monospace" font-size="9" fill="#22c55e" font-weight="700">DONE</text>
  <rect x="524" y="146" width="36" height="16" rx="8" fill="#052e16"/>
  <text x="542" y="158" text-anchor="middle" font-family="monospace" font-size="8" fill="#22c55e">8</text>

  <!-- Task cards DONE -->
  <rect x="406" y="180" width="156" height="44" rx="6" fill="#051a0e" stroke="#166534" stroke-width="1"/>
  <text x="418" y="196" font-family="monospace" font-size="8" fill="#4ade80" text-decoration="line-through">Python Basics ✓</text>
  <text x="418" y="210" font-family="monospace" font-size="7" fill="#166534">Completed · All trainees</text>

  <rect x="406" y="234" width="156" height="44" rx="6" fill="#051a0e" stroke="#166534" stroke-width="1"/>
  <text x="418" y="250" font-family="monospace" font-size="8" fill="#4ade80" text-decoration="line-through">Git Workflow ✓</text>
  <text x="418" y="264" font-family="monospace" font-size="7" fill="#166534">Completed · 22/24</text>

  <rect x="406" y="288" width="156" height="44" rx="6" fill="#051a0e" stroke="#166534" stroke-width="1" opacity="0.7"/>
  <text x="418" y="304" font-family="monospace" font-size="8" fill="#16a34a" text-decoration="line-through">API Concepts ✓</text>
  <text x="418" y="318" font-family="monospace" font-size="7" fill="#14532d">Completed · 19/24</text>

  <!-- ── Right panel: trainee list ── -->
  <rect x="590" y="138" width="190" height="250" rx="10" fill="#080d18" stroke="#1e3a5f" stroke-width="1"/>
  <rect x="590" y="138" width="190" height="32" rx="10" fill="#0d1a2e"/>
  <rect x="590" y="158" width="190" height="12" fill="#0d1a2e"/>
  <text x="606" y="158" font-family="monospace" font-size="9" fill="#60a5fa" font-weight="700">RECENT ACTIVITY</text>

  <!-- Activity feed -->
  <g font-family="monospace" font-size="8">
    <circle cx="608" cy="183" r="4" fill="#22c55e" opacity="0.8"/>
    <text x="618" y="180" fill="#60a5fa">Ankit S.</text>
    <text x="618" y="192" fill="#475569">submitted Flask task</text>
    <text x="758" y="186" text-anchor="end" fill="#334155">2m</text>

    <line x1="600" y1="202" x2="770" y2="202" stroke="#1e3a5f" stroke-width="0.5"/>

    <circle cx="608" cy="218" r="4" fill="#f59e0b" opacity="0.8"/>
    <text x="618" y="215" fill="#60a5fa">Priya M.</text>
    <text x="618" y="227" fill="#475569">started API Design</text>
    <text x="758" y="221" text-anchor="end" fill="#334155">14m</text>

    <line x1="600" y1="237" x2="770" y2="237" stroke="#1e3a5f" stroke-width="0.5"/>

    <circle cx="608" cy="253" r="4" fill="#3b82f6" opacity="0.8"/>
    <text x="618" y="250" fill="#60a5fa">Trainer (you)</text>
    <text x="618" y="262" fill="#475569">assigned 2 new tasks</text>
    <text x="758" y="256" text-anchor="end" fill="#334155">1h</text>

    <line x1="600" y1="272" x2="770" y2="272" stroke="#1e3a5f" stroke-width="0.5"/>

    <circle cx="608" cy="288" r="4" fill="#22c55e" opacity="0.8"/>
    <text x="618" y="285" fill="#60a5fa">Meera J.</text>
    <text x="618" y="297" fill="#475569">completed Git task</text>
    <text x="758" y="291" text-anchor="end" fill="#334155">2h</text>

    <line x1="600" y1="307" x2="770" y2="307" stroke="#1e3a5f" stroke-width="0.5"/>

    <circle cx="608" cy="323" r="4" fill="#8b5cf6" opacity="0.8"/>
    <text x="618" y="320" fill="#60a5fa">Ravi P.</text>
    <text x="618" y="332" fill="#475569">updated progress 80%</text>
    <text x="758" y="326" text-anchor="end" fill="#334155">3h</text>

    <line x1="600" y1="342" x2="770" y2="342" stroke="#1e3a5f" stroke-width="0.5"/>

    <circle cx="608" cy="358" r="4" fill="#475569" opacity="0.6"/>
    <text x="618" y="355" fill="#334155">System</text>
    <text x="618" y="367" fill="#334155">session auto-renewed</text>
    <text x="758" y="361" text-anchor="end" fill="#1e293b">5h</text>
  </g>

  <!-- Bottom bar -->
  <rect x="0" y="400" width="800" height="50" fill="#050810" opacity="0.9"/>
  <text x="40" y="424" font-family="monospace" font-size="13" fill="#60a5fa" font-weight="700">TRAINING DASHBOARD</text>
  <text x="40" y="440" font-family="monospace" font-size="9" fill="#1e3a5f">Flask · MongoDB Atlas · JWT Auth · Role-Based Access Control · Real-Time Task Tracking</text>

  <!-- Tech chips -->
  <rect x="554" y="408" width="36" height="18" rx="9" fill="#0d1a2e" stroke="#1d4ed8" stroke-width="1"/>
  <text x="572" y="421" text-anchor="middle" font-family="monospace" font-size="8" fill="#60a5fa">Flask</text>
  <rect x="596" y="408" width="48" height="18" rx="9" fill="#0d1a2e" stroke="#1d4ed8" stroke-width="1"/>
  <text x="620" y="421" text-anchor="middle" font-family="monospace" font-size="8" fill="#60a5fa">MongoDB</text>
  <rect x="650" y="408" width="28" height="18" rx="9" fill="#0d1a2e" stroke="#3b82f6" stroke-width="1"/>
  <text x="664" y="421" text-anchor="middle" font-family="monospace" font-size="8" fill="#93c5fd">JWT</text>
  <rect x="684" y="408" width="40" height="18" rx="9" fill="#0d1a2e" stroke="#1d4ed8" stroke-width="1"/>
  <text x="704" y="421" text-anchor="middle" font-family="monospace" font-size="8" fill="#60a5fa">Jinja2</text>
  <rect x="730" y="408" width="46" height="18" rx="9" fill="#0d1a2e" stroke="#334155" stroke-width="1"/>
  <text x="753" y="421" text-anchor="middle" font-family="monospace" font-size="8" fill="#475569">PyMongo</text>
</svg>
